<?xml version="1.0" encoding="utf-8"?>
<!-- Generator: Adobe Illustrator 21.0.0, SVG Export Plug-In . SVG Version: 6.00 Build 0)  -->
<svg version="1.1"
	 id="svg2" inkscape:version="0.48.4 r9939" sodipodi:docname="utbm.svg" xmlns:cc="http://creativecommons.org/ns#" xmlns:dc="http://purl.org/dc/elements/1.1/" xmlns:inkscape="http://www.inkscape.org/namespaces/inkscape" xmlns:rdf="http://www.w3.org/1999/02/22-rdf-syntax-ns#" xmlns:sodipodi="http://sodipodi.sourceforge.net/DTD/sodipodi-0.dtd" xmlns:svg="http://www.w3.org/2000/svg"
	 xmlns="http://www.w3.org/2000/svg" xmlns:xlink="http://www.w3.org/1999/xlink" x="0px" y="0px" viewBox="0 0 73.2 81.8"
	 style="enable-background:new 0 0 73.2 81.8;" xml:space="preserve">
<style type="text/css">
	.st0{fill:#25AAE1;}
	.st1{fill:#252C30;}
</style>
<defs>
	
	
		<inkscape:perspective  id="perspective10" inkscape:persp3d-origin="372.04724 : 350.78739 : 1" inkscape:vp_x="0 : 526.18109 : 1" inkscape:vp_y="0 : 1000 : 0" inkscape:vp_z="744.09448 : 526.18109 : 1" sodipodi:type="inkscape:persp3d">
		</inkscape:perspective>
	
		<inkscape:perspective  id="perspective10749" inkscape:persp3d-origin="0.5 : 0.33333333 : 1" inkscape:vp_x="0 : 0.5 : 1" inkscape:vp_y="0 : 1000 : 0" inkscape:vp_z="1 : 0.5 : 1" sodipodi:type="inkscape:persp3d">
		</inkscape:perspective>
	
		<inkscape:perspective  id="perspective10-7" inkscape:persp3d-origin="372.04724 : 350.78739 : 1" inkscape:vp_x="0 : 526.18109 : 1" inkscape:vp_y="0 : 1000 : 0" inkscape:vp_z="744.09448 : 526.18109 : 1" sodipodi:type="inkscape:persp3d">
		</inkscape:perspective>
	
		<inkscape:perspective  id="perspective2824" inkscape:persp3d-origin="0.5 : 0.33333333 : 1" inkscape:vp_x="0 : 0.5 : 1" inkscape:vp_y="0 : 1000 : 0" inkscape:vp_z="1 : 0.5 : 1" sodipodi:type="inkscape:persp3d">
		</inkscape:perspective>
	
		<inkscape:perspective  id="perspective2889" inkscape:persp3d-origin="237.96852 : 44.161418 : 1" inkscape:vp_x="0 : 66.242126 : 1" inkscape:vp_y="0 : 1000 : 0" inkscape:vp_z="475.93704 : 66.242126 : 1" sodipodi:type="inkscape:persp3d">
		</inkscape:perspective>
	
		<inkscape:perspective  id="perspective10-74" inkscape:persp3d-origin="0.5 : 0.33333333 : 1" inkscape:vp_x="0 : 0.5 : 1" inkscape:vp_y="0 : 1000 : 0" inkscape:vp_z="1 : 0.5 : 1" sodipodi:type="inkscape:persp3d">
		</inkscape:perspective>
</defs>
<sodipodi:namedview  bordercolor="#666666" borderopacity="1.0" fit-margin-bottom="0.1" fit-margin-left="0.1" fit-margin-right="0.1" fit-margin-top="0.1" id="base" inkscape:current-layer="g918" inkscape:cx="87.548672" inkscape:cy="46.637097" inkscape:document-units="px" inkscape:pageopacity="0.0" inkscape:pageshadow="2" inkscape:window-height="688" inkscape:window-maximized="1" inkscape:window-width="1366" inkscape:window-x="0" inkscape:window-y="25" inkscape:zoom="4" pagecolor="#ffffff" showgrid="false">
	</sodipodi:namedview>
<g id="layer1" transform="translate(-1.6393542,-985.23503)" inkscape:groupmode="layer" inkscape:label="Calque 1">
	<g id="g5293" transform="matrix(2.5203986,0,0,-2.5203986,-35.001121,1229.6023)">
		<g id="g910" transform="matrix(0.759738,0,0,0.759738,30.1425,89.4707)">
			<g id="XMLID_1_">
				<g>
					<path class="st0" d="M17.2-20.2v-6.1H6.1C12.7-24.8,17.2-22.4,17.2-20.2z"/>
					<path class="st0" d="M17.2-11.2v-9.1c0,0.1,0,0.1,0,0.2c-0.2,1.3-2.1,2.4-5.1,2.9c0.7-0.5,1.1-1,1.1-1.6
						c0.3-2.9-7.4-6.3-17.2-7.5c-0.6-0.1-1.2-0.1-1.8-0.2h-3.6l-1,7.5c2.9-0.2,6.3-0.1,9.9,0.4C9.4-17.3,17.2-14,17.2-11.2z"/>
					<path class="st0" d="M17.2-1.8v-9.4c0,0.1,0,0.1,0,0.2c-0.2,1.3-2.1,2.4-5.1,2.9c0.7-0.4,1.1-1,1.1-1.6
						c0.3-2.9-7.4-6.5-17.3-7.7c-1.9-0.2-4.4-0.5-6.5-0.7l-1.2,8.7c3.2-0.3,7-0.2,11.2,0.3C9.4-7.9,17.2-4.7,17.2-1.8z"/>
					<path class="st0" d="M17.2-1.6c-0.2,1.3-2.1,2.4-5.1,2.9c0.7-0.5,1.1-1,1.1-1.6C13.6-3.1,5.8-6.8-4-8c-2.3-0.3-5.5-0.6-7.8-0.8
						c0,0,0,0,0,0L-13-0.1C-9.6-0.6-5-0.6,0,0c8.4,1,15.3,3.5,17.2,5.9v-7.7C17.2-1.7,17.2-1.7,17.2-1.6z"/>
				</g>
				<g>
				</g>
			</g>
		</g>
		<g id="g914" transform="matrix(0.759738,0,0,0.759738,16.9238,81.9029)">
			<g id="XMLID_2_">
				<g>
					<polygon class="st0" points="0,0 4.8,-16.4 0,-16.4 					"/>
				</g>
				<g>
				</g>
			</g>
		</g>
		<g id="g918" transform="matrix(0.759738,0,0,0.759738,26.3152,96.6659)">
			<g id="XMLID_3_">
				<g>
					<path class="st1" d="M17.9-2.1c0.1-2.2-7.3-4.6-16.5-5.4c-4-0.4-7.7-0.4-10.6-0.1l4.9-34.7l-11.1,37l0,0c0,0.1,0,0.1,0,0.2
						C-15.5-2.9-9.2-0.8,0,0C9.2,0.8,17.8,0.1,17.9-2.1z"/>
				</g>
				<g>
				</g>
			</g>
		</g>
	</g>
</g>
</svg>
